<?xml version="1.0" standalone="no"?><!DOCTYPE svg PUBLIC "-//W3C//DTD SVG 1.1//EN" "http://www.w3.org/Graphics/SVG/1.1/DTD/svg11.dtd"><svg t="1528537469687" class="icon" style="" viewBox="0 0 1024 1024" version="1.1" xmlns="http://www.w3.org/2000/svg" p-id="9531" xmlns:xlink="http://www.w3.org/1999/xlink" width="16" height="16"><defs><style type="text/css"></style></defs><path d="M685.66069 525.023618c-7.192819 7.193843-18.856463 7.194866-26.049283 0L338.338287 203.75152c-7.192819-7.192819-7.192819-18.85544 0-26.049283l0 0c7.192819-7.192819 18.856463-7.192819 26.049283 0l321.273121 321.273121C692.853509 506.168178 692.853509 517.830799 685.66069 525.023618L685.66069 525.023618z" p-id="9532" fill="#2c2c2c"></path><path d="M685.66069 498.975359c7.191796 7.191796 7.192819 18.85544 0 26.048259L364.387569 846.297762c-7.192819 7.192819-18.856463 7.191796-26.049283 0l0 0c-7.191796-7.192819-7.192819-18.856463 0-26.049283l321.273121-321.273121C666.804227 491.781516 678.467871 491.782539 685.66069 498.975359L685.66069 498.975359z" p-id="9533" fill="#2c2c2c"></path></svg>