<?xml version="1.0" standalone="no"?><!DOCTYPE svg PUBLIC "-//W3C//DTD SVG 1.1//EN" "http://www.w3.org/Graphics/SVG/1.1/DTD/svg11.dtd"><svg t="1528533133226" class="icon" style="" viewBox="0 0 1024 1024" version="1.1" xmlns="http://www.w3.org/2000/svg" p-id="5689" data-spm-anchor-id="a313x.7781069.0.i20" xmlns:xlink="http://www.w3.org/1999/xlink" width="40" height="40"><defs><style type="text/css"></style></defs><path d="M883.048 786.29l-0.004 0.002-68.137-114.401V424.518c0-51.807-22.722-111.991-58.662-159.363-36.566-48.189-87.899-85.901-144.54-106.181a35.414 35.414 0 0 0-0.996-0.336c-1.301-0.393-6.127-1.856-13.218-3.796v-8.28c0-44.829-39.227-82.563-86.373-82.563-47.145 0-84.638 37.739-84.638 82.563v7.68c-6.606 1.786-10.788 3.07-11.275 3.218l-0.744 0.24c-57.505 19.804-109.718 57.471-147.01 106.064-36.615 47.71-60.124 108.385-60.124 160.75v247.371L134.626 794.67c-9.152 15.167-9.095 34.051 0.154 49.288 7.554 12.434 23.969 24.889 39.848 28.946h674.016c24.775-5.915 47.556-30.085 47.556-53.733-0.001-12.357-4.645-23.899-13.152-32.881zM511.979 109.81h0.004c21.834 0 39.73 14.263 40.814 34.78-0.561-0.1-25.819-4.381-41.511-4.381-12.259 0-32.388 2.656-40.096 3.988 1.295-20.33 19.093-34.387 40.789-34.387z m339.583 709.368c-0.001 3.86-10.054 10.13-14.154 10.13H184.822c-2.615 0-10.146-4.517-11.389-6.564a6.666 6.666 0 0 1-1.015-3.555c0-1.283 0.36-2.483 0.986-3.503l78.992-132.188c1.907-3.19-0.064-7.941-0.064-11.613V424.513c0-91.843 81.555-180.114 176.928-223.964 32.583-13.357 45.795-14.99 82.395-14.99 34.531 0 52.897 2.527 84.832 16.121l-0.005 0.001c97.448 35.11 173.414 132.399 173.414 222.836v247.371c0 3.675-1.545 8.417 0.364 11.611l75.35 126.045a21.324 21.324 0 0 0 7.627 7.488c-2.307-1.261-1.675 0.359-1.675 2.146z m-264.946 95.485H437.384c-9.56 0-17.311 10.149-17.311 22.668 0 12.521 7.751 22.668 17.311 22.668h149.232c9.56 0 17.311-10.148 17.311-22.668-0.001-12.519-7.752-22.668-17.311-22.668z" fill="#ffffff" p-id="5690"></path></svg>