<?xml version="1.0" standalone="no"?><!DOCTYPE svg PUBLIC "-//W3C//DTD SVG 1.1//EN" "http://www.w3.org/Graphics/SVG/1.1/DTD/svg11.dtd"><svg t="1528342876459" class="icon" style="" viewBox="0 0 1024 1024" version="1.1" xmlns="http://www.w3.org/2000/svg" p-id="4738" xmlns:xlink="http://www.w3.org/1999/xlink" width="22" height="22"><defs><style type="text/css"></style></defs><path d="M512 979.2C261.12 979.2 57.6 775.68 57.6 524.8S261.12 70.4 512 70.4 966.4 273.92 966.4 524.8 762.88 979.2 512 979.2z m0-870.4C282.88 108.8 96 295.68 96 524.8S282.88 940.8 512 940.8 928 753.92 928 524.8 741.12 108.8 512 108.8z" p-id="4739" fill="#333333"></path><path d="M499.2 381.44c-55.04 0-99.84-44.8-99.84-99.84s44.8-99.84 99.84-99.84 99.84 44.8 99.84 99.84-44.8 99.84-99.84 99.84z m0-162.56c-34.56 0-61.44 28.16-61.44 61.44s28.16 61.44 61.44 61.44 61.44-28.16 61.44-61.44-26.88-61.44-61.44-61.44zM499.2 843.52c-55.04 0-99.84-44.8-99.84-99.84s44.8-99.84 99.84-99.84 99.84 44.8 99.84 99.84-44.8 99.84-99.84 99.84z m0-162.56c-34.56 0-61.44 28.16-61.44 61.44s28.16 61.44 61.44 61.44 61.44-28.16 61.44-61.44-26.88-61.44-61.44-61.44zM730.88 611.84c-55.04 0-99.84-44.8-99.84-99.84s44.8-99.84 99.84-99.84 99.84 44.8 99.84 99.84-44.8 99.84-99.84 99.84z m0-161.28c-34.56 0-61.44 28.16-61.44 61.44s28.16 61.44 61.44 61.44 61.44-28.16 61.44-61.44-28.16-61.44-61.44-61.44zM267.52 611.84c-55.04 0-99.84-44.8-99.84-99.84s44.8-99.84 99.84-99.84 99.84 44.8 99.84 99.84c1.28 55.04-44.8 99.84-99.84 99.84z m0-161.28c-34.56 0-61.44 28.16-61.44 61.44s28.16 61.44 61.44 61.44 61.44-28.16 61.44-61.44-26.88-61.44-61.44-61.44zM997.12 972.8H591.36c-10.24 0-19.2-8.96-19.2-19.2s8.96-19.2 19.2-19.2h404.48c10.24 0 19.2 8.96 19.2 19.2s-7.68 19.2-17.92 19.2z" p-id="4740" fill="#333333"></path></svg>