<?xml version="1.0" standalone="no"?><!DOCTYPE svg PUBLIC "-//W3C//DTD SVG 1.1//EN" "http://www.w3.org/Graphics/SVG/1.1/DTD/svg11.dtd"><svg t="1528533369810" class="icon" style="" viewBox="0 0 1025 1024" version="1.1" xmlns="http://www.w3.org/2000/svg" p-id="7157" xmlns:xlink="http://www.w3.org/1999/xlink" width="40.0390625" height="40"><defs><style type="text/css"></style></defs><path d="M511.727152 738.96211C386.148681 738.96211 284.376232 637.189662 284.376232 511.611191 284.376232 386.03272 386.148681 284.19206 511.727152 284.19206 637.305622 284.19206 739.078071 386.03272 739.078071 511.611191 739.078071 637.189662 637.305622 738.96211 511.727152 738.96211M994.873435 397.901625 915.610978 397.901625C903.401013 397.901625 892.89635 389.92081 888.871836 378.392966 884.096989 364.88697 878.708233 351.722036 872.637357 338.898161 867.385025 327.916014 869.15854 314.887503 877.821476 306.292779L933.755396 250.290647C944.873967 239.240288 944.873967 221.232294 933.755396 210.113722L813.156408 89.514735C802.106048 78.464375 784.098055 78.464375 772.979483 89.514735L717.045564 145.516867C708.382627 154.111591 695.422329 155.953317 684.371969 150.700986 671.616307 144.561897 658.451372 139.173141 644.945377 134.466507 633.417533 130.441993 625.436717 119.93733 625.436717 107.659153L625.436717 28.396696C625.436717 12.707914 612.681055 0.020464 596.992273 0.020464L426.46203 0.020464C410.773248 0.020464 398.017586 12.707914 398.017586 28.396696L398.017586 107.659153C398.017586 119.93733 390.036771 130.441993 378.508926 134.466507 365.002931 139.173141 351.837996 144.561897 339.082334 150.700986 328.031974 155.953317 315.071676 154.111591 306.40874 145.516867L250.47482 89.514735C239.356248 78.464375 221.348255 78.464375 210.297895 89.514735L89.698908 210.113722C78.580336 221.232294 78.580336 239.240288 89.698908 250.290647L145.632827 306.292779C154.295763 314.887503 156.069278 327.916014 150.816946 338.898161 144.74607 351.722036 139.357314 364.88697 134.582467 378.392966 130.557954 389.92081 120.053291 397.901625 107.843325 397.901625L28.580869 397.901625C12.892086 397.901625 0.136424 410.657288 0.136424 426.34607L0.136424 596.876312C0.136424 612.565095 12.892086 625.252545 28.580869 625.252545L107.843325 625.252545C120.053291 625.252545 130.557954 633.23336 134.582467 644.829416 139.357314 658.2672 144.74607 671.500346 150.816946 684.256009 156.069278 695.306368 154.295763 708.266667 145.632827 716.929603L89.698908 772.863523C78.580336 783.982094 78.580336 801.921876 89.698908 813.040448L210.297895 933.639435C221.348255 944.758007 239.356248 944.758007 250.47482 933.639435L306.40874 877.705516C315.071676 869.042579 328.031974 867.269065 339.082334 872.521396 357.977085 881.457181 377.690381 888.960512 398.017586 895.031388L398.017586 994.757474C398.017586 1010.446256 410.773248 1023.201918 426.46203 1023.201918L596.992273 1023.201918C612.681055 1023.201918 625.436717 1010.446256 625.436717 994.757474L625.436717 915.495017C625.436717 903.285052 633.417533 892.712177 644.945377 888.687663 658.451372 883.981029 671.616307 878.592273 684.371969 872.521396 695.422329 867.269065 708.382627 869.042579 717.045564 877.705516L772.979483 933.639435C784.098055 944.758007 802.106048 944.758007 813.156408 933.639435L933.755396 813.040448C944.873967 801.921876 944.873967 783.982094 933.755396 772.863523L877.821476 716.929603C869.15854 708.266667 867.385025 695.306368 872.637357 684.256009 878.708233 671.432134 884.096989 658.2672 888.871836 644.829416 892.89635 633.23336 903.401013 625.252545 915.610978 625.252545L994.873435 625.252545C1010.562217 625.252545 1023.317879 612.565095 1023.317879 596.876312L1023.317879 426.34607C1023.317879 410.657288 1010.562217 397.901625 994.873435 397.901625" p-id="7158" fill="#ffffff"></path><path d="M511.727152 362.874714C429.599787 362.874714 363.02478 429.44972 363.02478 511.577085 363.02478 593.70445 429.599787 660.279456 511.727152 660.279456 593.854516 660.279456 660.429523 593.70445 660.429523 511.577085 660.429523 429.44972 593.854516 362.874714 511.727152 362.874714" p-id="7159" fill="#ffffff"></path></svg>