<?xml version="1.0" standalone="no"?><!DOCTYPE svg PUBLIC "-//W3C//DTD SVG 1.1//EN" "http://www.w3.org/Graphics/SVG/1.1/DTD/svg11.dtd"><svg t="1528343132732" class="icon" style="" viewBox="0 0 1024 1024" version="1.1" xmlns="http://www.w3.org/2000/svg" p-id="9842" xmlns:xlink="http://www.w3.org/1999/xlink" width="22" height="22"><defs><style type="text/css"></style></defs><path d="M913.785691 318.900579a463.722402 463.722402 0 0 0-218.939389-161.888367 484.202256 484.202256 0 0 0-51.68725-15.603698 682.661791 682.661791 0 0 0-87.770801-22.430316h-8.777081l-48.761556-14.140852A926.469573 926.469573 0 0 1 347.176405 29.256934a258.436249 258.436249 0 0 0-58.513868-25.843625A87.283186 87.283186 0 0 0 264.769374 0H247.702829a32.670243 32.670243 0 0 0-15.116082 22.430316 48.761556 48.761556 0 0 0 14.140851 37.546398 136.532358 136.532358 0 0 1 16.091314 23.893163 188.219608 188.219608 0 0 1 7.801849 27.306472A155.06175 155.06175 0 0 1 270.620761 146.284669a90.696495 90.696495 0 0 1-5.851387 18.529392 177.492066 177.492066 0 0 1-24.380778 35.108321 170.665448 170.665448 0 0 1-24.380778 21.455084l-7.314234 5.363772a478.838484 478.838484 0 0 0-131.656202 150.673209A420.324617 420.324617 0 0 0 26.812979 581.725369a413.985614 413.985614 0 0 0 37.546398 173.103525 438.854008 438.854008 0 0 0 102.399269 139.945667A494.442183 494.442183 0 0 0 502.72577 1023.992686a511.021112 511.021112 0 0 0 341.330895-129.70574A448.118704 448.118704 0 0 0 953.282551 751.415585a419.349386 419.349386 0 0 0-39.009245-432.515006zM503.701001 971.81782c-235.030702 0-426.176004-175.053988-426.176004-390.092451a390.092452 390.092452 0 0 1 169.202601-317.437733l7.314234-5.363771a179.930143 179.930143 0 0 0 24.380778-22.430316 200.409997 200.409997 0 0 0 32.182627-48.761557 140.433283 140.433283 0 0 0 9.752311-30.71978 27.794087 27.794087 0 0 0 0-6.339003 179.930143 179.930143 0 0 0-2.925693-48.761556V97.523113a211.625155 211.625155 0 0 0-10.727542-32.670243l15.603698 8.289465a948.412273 948.412273 0 0 0 159.450289 77.530874l51.199635 14.628467h12.190389a713.869187 713.869187 0 0 1 82.894646 21.455085 442.267317 442.267317 0 0 1 43.397785 12.678005h4.876156a386.191527 386.191527 0 0 1 266.238098 370.100214c-1.950462 223.815544-200.409997 401.795225-438.854008 402.28284z" p-id="9843" fill="#333333"></path><path d="M361.317256 437.391161h102.886884v154.574134H361.317256zM696.309149 437.391161h102.886884v154.574134h-102.886884z" p-id="9844" fill="#333333"></path></svg>